<svg xmlns="http://www.w3.org/2000/svg" xmlns:xlink="http://www.w3.org/1999/xlink" width="256" zoomAndPan="magnify" viewBox="0 0 192 191.999996" height="256" preserveAspectRatio="xMidYMid meet" version="1.0"><path fill="#5ce1e6" d="M 87.472656 21.042969 C 85.082031 19.578125 82.851562 20.695312 80.34375 19.046875 C 79.902344 14.703125 79.625 9.847656 80.597656 5.042969 C 85.59375 3.8125 104.75 3.71875 110.464844 4.878906 C 111.742188 9.476562 111.183594 14.214844 110.8125 18.671875 C 108.839844 20.925781 106.261719 19.53125 104.125 20.695312 C 102.800781 22.0625 102.984375 23.710938 103.867188 25.476562 C 106.285156 26.707031 108.953125 26.617188 111.484375 27.148438 C 119.589844 28.890625 127.371094 31.609375 134.660156 35.601562 C 136.660156 36.695312 138.679688 38.066406 140.097656 34.789062 C 140.144531 32.746094 137.519531 32.398438 137.03125 29.773438 C 136.867188 28.820312 138.402344 26.546875 142.675781 22.34375 C 143.972656 21.925781 145.019531 22.527344 146.019531 23.25 C 149.917969 26.105469 153.867188 28.890625 157.699219 31.816406 C 160.835938 34.210938 160.835938 34.859375 158.605469 38.25 C 158.371094 38.574219 158.140625 38.902344 157.882812 39.226562 C 154.773438 43.476562 154.773438 43.476562 149.617188 41.058594 C 146.832031 42.753906 147.503906 44.359375 149.59375 46.191406 C 155.863281 51.648438 161.113281 57.988281 165.410156 65.117188 C 195.367188 114.628906 165.082031 179.210938 107.886719 187.851562 C 57.65625 195.46875 12.929688 156.222656 13.878906 105.410156 C 14.625 66.789062 43.488281 33.257812 81.550781 26.847656 C 83.316406 26.546875 85.082031 26.175781 86.660156 25.871094 C 88.125 24.269531 87.519531 22.667969 87.472656 21.042969 Z M 161.160156 107.5 C 161.320312 71.414062 132.339844 41.828125 96.53125 41.523438 C 59.652344 41.222656 29.765625 70.667969 29.742188 107.316406 C 29.71875 143.261719 59.445312 173.011719 95.460938 173.105469 C 131.550781 173.175781 160.996094 143.773438 161.160156 107.5 Z M 161.160156 107.5 " fill-opacity="1" fill-rule="nonzero"/><path fill="#5ce1e6" d="M 35.082031 107.058594 C 55.285156 107.058594 75.117188 107.058594 95.625 107.058594 C 95.625 86.644531 95.625 66.835938 95.625 47.097656 C 119.519531 44.519531 153.636719 65.328125 156.28125 102.601562 C 158.859375 138.757812 130.457031 169.0625 94.625 168.226562 C 53.589844 167.253906 33.339844 131.582031 35.082031 107.058594 Z M 35.082031 107.058594 " fill-opacity="1" fill-rule="nonzero"/></svg>