<svg xmlns="http://www.w3.org/2000/svg" xmlns:xlink="http://www.w3.org/1999/xlink" width="256" zoomAndPan="magnify" viewBox="0 0 192 191.999996" height="256" preserveAspectRatio="xMidYMid meet" version="1.0"><defs><clipPath id="adabbbae0e"><path d="M 7.21875 23.089844 L 184.96875 23.089844 L 184.96875 168.589844 L 7.21875 168.589844 Z M 7.21875 23.089844 " clip-rule="nonzero"/></clipPath></defs><g clip-path="url(#adabbbae0e)"><path fill="#5ce1e6" d="M 103.015625 57.492188 L 160.296875 156.703125 C 161.773438 159.265625 161.785156 162.253906 160.289062 164.8125 L 160.296875 164.8125 C 159.566406 166.078125 158.554688 167.085938 157.339844 167.789062 L 157.34375 167.792969 C 156.128906 168.496094 154.746094 168.871094 153.277344 168.871094 L 38.71875 168.871094 C 32.535156 168.871094 28.546875 162.171875 31.703125 156.703125 L 88.984375 57.492188 C 89.707031 56.242188 90.742188 55.210938 91.9375 54.519531 L 91.933594 54.515625 C 95.746094 52.316406 100.726562 53.53125 103.015625 57.492188 Z M 35.761719 24.285156 C 34.679688 22.816406 32.445312 22.769531 31.3125 24.246094 L 7.917969 54.738281 C 6.273438 56.738281 7.765625 59.363281 10.007812 59.363281 L 19.457031 59.363281 L 19.457031 105.75 C 19.457031 107.289062 20.707031 108.535156 22.242188 108.535156 L 44.800781 108.535156 C 46.339844 108.535156 47.585938 107.289062 47.585938 105.75 L 47.585938 59.363281 L 57.035156 59.363281 L 57.035156 59.355469 C 59.265625 59.359375 60.65625 56.738281 59.246094 54.890625 Z M 51.394531 53.792969 L 33.523438 30.496094 L 15.648438 53.792969 L 22.242188 53.792969 C 23.78125 53.792969 25.027344 55.039062 25.027344 56.578125 L 25.027344 102.964844 L 42.015625 102.964844 L 42.015625 56.578125 C 42.015625 55.039062 43.261719 53.792969 44.800781 53.792969 Z M 160.714844 24.285156 C 159.632812 22.816406 157.398438 22.769531 156.269531 24.246094 L 132.875 54.738281 C 131.230469 56.738281 132.722656 59.363281 134.964844 59.363281 L 144.414062 59.363281 L 144.414062 105.75 C 144.414062 107.289062 145.660156 108.535156 147.199219 108.535156 L 169.757812 108.535156 C 171.292969 108.535156 172.542969 107.289062 172.542969 105.75 L 172.542969 59.363281 L 181.992188 59.363281 L 181.992188 59.355469 C 184.222656 59.359375 185.613281 56.738281 184.199219 54.890625 Z M 176.351562 53.792969 L 158.476562 30.496094 L 140.601562 53.792969 L 147.199219 53.792969 C 148.734375 53.792969 149.984375 55.039062 149.984375 56.578125 L 149.984375 102.964844 L 166.972656 102.964844 L 166.972656 56.578125 C 166.972656 55.039062 168.21875 53.792969 169.757812 53.792969 Z M 95.679688 136.429688 C 90.691406 136.429688 86.648438 140.472656 86.648438 145.460938 C 86.648438 153.480469 96.390625 157.523438 102.066406 151.847656 C 107.742188 146.171875 103.699219 136.429688 95.679688 136.429688 Z M 98.128906 143.015625 C 95.953125 140.839844 92.21875 142.386719 92.21875 145.460938 C 92.21875 148.539062 95.953125 150.082031 98.128906 147.910156 C 99.476562 146.558594 99.476562 144.363281 98.128906 143.015625 Z M 107.734375 94.589844 C 108.539062 88.386719 105.910156 84.164062 102.109375 81.957031 C 94.15625 77.339844 82.023438 82.292969 83.613281 94.589844 L 87.675781 125.96875 C 88.632812 133.359375 102.714844 133.359375 103.671875 125.96875 Z M 98.167969 125.273438 L 102.230469 93.894531 C 103.210938 86.320312 96.101562 84.394531 92.015625 86.765625 C 90.015625 87.925781 88.652344 90.289062 89.117188 93.894531 L 93.179688 125.273438 C 93.222656 125.613281 95.65625 126.339844 97.484375 125.65625 C 97.875 125.507812 98.15625 125.367188 98.167969 125.273438 Z M 126.847656 109.882812 L 98.207031 60.277344 C 97.433594 58.941406 95.8125 58.691406 94.71875 59.324219 L 94.714844 59.320312 C 94.3125 59.554688 94.042969 59.84375 93.792969 60.277344 L 36.511719 159.488281 C 35.570312 161.121094 36.644531 163.300781 38.71875 163.300781 L 153.277344 163.300781 C 153.769531 163.300781 154.203125 163.191406 154.558594 162.984375 L 154.5625 162.988281 C 154.929688 162.773438 155.234375 162.464844 155.488281 162.027344 L 155.492188 162.03125 C 155.957031 161.222656 155.957031 160.300781 155.488281 159.488281 Z M 126.847656 109.882812 " fill-opacity="1" fill-rule="evenodd"/></g></svg>