<svg xmlns="http://www.w3.org/2000/svg" xmlns:xlink="http://www.w3.org/1999/xlink" width="256" zoomAndPan="magnify" viewBox="0 0 192 191.999996" height="256" preserveAspectRatio="xMidYMid meet" version="1.0"><defs><clipPath id="30687248bf"><path d="M 5.292969 41.578125 L 186.792969 41.578125 L 186.792969 150.328125 L 5.292969 150.328125 Z M 5.292969 41.578125 " clip-rule="nonzero"/></clipPath></defs><g clip-path="url(#30687248bf)"><path fill="#ffffff" d="M 180.402344 88.25 C 176.25 83.492188 170.867188 79.359375 163.457031 75.234375 C 157.429688 71.882812 151.0625 69.066406 144.910156 66.34375 C 141.121094 64.667969 137.203125 62.933594 133.429688 61.101562 C 121.347656 55.238281 113.332031 49.484375 107.433594 42.441406 C 106.859375 41.753906 105.925781 41.476562 105.066406 41.742188 C 74.976562 51.03125 44.8125 63.355469 12.835938 79.433594 C 12.253906 79.722656 11.832031 80.253906 11.675781 80.882812 C 11.519531 81.507812 11.640625 82.175781 12.011719 82.703125 C 14.082031 85.644531 16.347656 88.460938 18.792969 91.15625 C 18.019531 91.746094 17.179688 92.359375 16.300781 92.996094 C 12.433594 95.816406 8.050781 99.011719 5.636719 102.960938 C 5.023438 103.957031 5.289062 105.261719 6.25 105.941406 C 26.855469 120.542969 48.160156 135.636719 71.753906 145.957031 C 76.570312 148.0625 80.695312 149.585938 85.140625 150.144531 C 86.238281 150.285156 87.328125 150.351562 88.394531 150.351562 C 92.597656 150.351562 96.480469 149.285156 99.566406 147.238281 C 99.964844 146.972656 100.246094 146.605469 100.410156 146.195312 C 101.875 145.691406 104.320312 144.730469 108.671875 143.003906 C 113.789062 140.972656 121.046875 138.039062 130.230469 134.289062 C 146.378906 127.703125 165.011719 120.015625 177.804688 114.726562 C 181.644531 113.140625 184.609375 109.96875 185.941406 106.03125 C 187.257812 102.136719 186.839844 97.878906 184.785156 94.34375 C 183.546875 92.222656 182.074219 90.171875 180.402344 88.25 Z M 85.703125 145.730469 C 81.78125 145.230469 78.003906 143.832031 73.539062 141.878906 C 51.058594 132.046875 30.515625 117.671875 10.660156 103.609375 C 12.800781 101.070312 16.019531 98.71875 18.921875 96.605469 C 19.96875 95.84375 20.957031 95.117188 21.878906 94.402344 C 34.054688 106.566406 50.167969 115.894531 69.25 121.714844 C 70.335938 122.046875 71.425781 122.367188 72.523438 122.6875 C 78.074219 124.3125 83.320312 125.847656 87.859375 128.84375 C 94.875 133.476562 96.785156 139.875 96.289062 144.015625 C 93.414062 145.625 89.695312 146.238281 85.703125 145.730469 Z M 181.722656 104.613281 C 180.800781 107.332031 178.753906 109.519531 176.105469 110.613281 C 136.320312 127.070312 109.242188 138.101562 100.789062 141.308594 C 100.230469 134.171875 95.078125 128.269531 90.316406 125.121094 C 85.21875 121.757812 79.402344 120.050781 73.777344 118.40625 C 72.703125 118.089844 71.625 117.773438 70.554688 117.453125 C 47.683594 110.476562 29.292969 98.332031 17.183594 82.242188 C 47.574219 67.097656 76.335938 55.371094 104.984375 46.4375 C 109.09375 51.105469 116.324219 57.757812 131.480469 65.117188 C 135.324219 66.980469 139.277344 68.730469 143.101562 70.425781 C 149.164062 73.105469 155.433594 75.878906 161.285156 79.136719 C 168.230469 83 173.234375 86.828125 177.035156 91.183594 C 178.523438 92.890625 179.832031 94.710938 180.929688 96.59375 C 182.339844 99.015625 182.628906 101.9375 181.722656 104.613281 Z M 181.722656 104.613281 " fill-opacity="1" fill-rule="nonzero"/></g><path fill="#ffffff" d="M 66.261719 123.324219 C 63.558594 122.421875 60.789062 121.625 58.117188 120.851562 C 53.707031 119.582031 49.148438 118.265625 44.910156 116.472656 C 35.984375 112.703125 28 106.664062 20.277344 100.824219 C 19.296875 100.082031 17.898438 100.273438 17.15625 101.257812 C 16.414062 102.238281 16.609375 103.640625 17.59375 104.378906 C 25.535156 110.378906 33.742188 116.589844 43.179688 120.574219 C 47.664062 122.46875 52.351562 123.820312 56.882812 125.128906 C 59.511719 125.886719 62.230469 126.675781 64.847656 127.546875 C 73.335938 130.386719 79.160156 133.8125 83.179688 138.339844 C 83.621094 138.839844 84.230469 139.089844 84.847656 139.089844 C 85.375 139.089844 85.902344 138.90625 86.324219 138.53125 C 87.246094 137.714844 87.328125 136.304688 86.511719 135.386719 C 81.953125 130.25 75.515625 126.417969 66.261719 123.324219 Z M 66.261719 123.324219 " fill-opacity="1" fill-rule="nonzero"/><path fill="#ffffff" d="M 108.976562 93.558594 L 107.554688 92.800781 C 95.210938 86.226562 82.445312 79.425781 73.984375 68.445312 C 73.234375 67.46875 71.832031 67.289062 70.859375 68.039062 C 69.886719 68.792969 69.703125 70.191406 70.453125 71.164062 C 79.5 82.90625 92.699219 89.9375 105.460938 96.734375 L 106.878906 97.488281 C 117.539062 103.175781 127.667969 109.019531 134.445312 118.027344 C 134.882812 118.609375 135.550781 118.914062 136.226562 118.914062 C 136.691406 118.914062 137.164062 118.769531 137.5625 118.464844 C 138.546875 117.726562 138.746094 116.332031 138.007812 115.347656 C 130.679688 105.617188 120.09375 99.484375 108.976562 93.558594 Z M 108.976562 93.558594 " fill-opacity="1" fill-rule="nonzero"/><path fill="#ffffff" d="M 76.339844 87.214844 C 77.011719 86.835938 77.441406 86.140625 77.472656 85.371094 C 77.507812 84.601562 77.144531 83.871094 76.507812 83.4375 C 75.738281 82.910156 60.140625 72.417969 59.476562 71.96875 C 58.902344 71.585938 58.1875 71.488281 57.53125 71.703125 C 48.644531 74.636719 40.203125 78.832031 32.453125 84.164062 C 31.957031 84.507812 31.617188 85.042969 31.515625 85.640625 C 31.417969 86.238281 31.570312 86.851562 31.929688 87.335938 C 35.214844 91.742188 37.765625 94.472656 40.726562 96.757812 C 44.269531 99.492188 47.902344 101.125 51.523438 101.601562 C 51.617188 101.613281 51.71875 101.621094 51.816406 101.621094 C 52.191406 101.621094 52.5625 101.523438 52.894531 101.34375 C 57.398438 98.851562 61.59375 96.226562 65.660156 93.679688 C 69.308594 91.394531 72.757812 89.230469 76.339844 87.214844 Z M 51.402344 97.0625 C 48.796875 96.574219 46.121094 95.285156 43.453125 93.21875 C 41.261719 91.53125 39.292969 89.515625 36.933594 86.523438 C 43.488281 82.246094 50.53125 78.804688 57.902344 76.277344 C 60.347656 77.917969 67.109375 82.46875 71.050781 85.121094 C 68.476562 86.648438 65.9375 88.238281 63.296875 89.890625 C 59.484375 92.28125 55.554688 94.738281 51.402344 97.0625 Z M 51.402344 97.0625 " fill-opacity="1" fill-rule="nonzero"/><path fill="#ffffff" d="M 113.292969 86.308594 C 112.585938 86.683594 112.132812 87.40625 112.109375 88.207031 C 112.085938 89.003906 112.488281 89.753906 113.167969 90.175781 L 134.007812 103.003906 C 134.371094 103.226562 134.773438 103.335938 135.179688 103.335938 C 135.625 103.335938 136.066406 103.199219 136.449219 102.9375 C 142.054688 99.050781 152.429688 93.21875 160.082031 90.1875 C 160.816406 89.898438 161.339844 89.246094 161.464844 88.46875 C 161.589844 87.691406 161.292969 86.90625 160.6875 86.40625 C 155.082031 81.742188 149.121094 77.898438 141.363281 73.933594 C 140.910156 73.703125 140.390625 73.632812 139.894531 73.734375 C 134.546875 74.855469 124.785156 80.042969 116.050781 84.8125 C 114.933594 85.421875 113.988281 85.933594 113.292969 86.308594 Z M 140.0625 78.273438 C 145.855469 81.273438 150.589844 84.214844 154.941406 87.527344 C 147.976562 90.648438 140.171875 95.089844 135.121094 98.449219 L 118.785156 88.394531 C 124.371094 85.34375 134.792969 79.699219 140.0625 78.273438 Z M 140.0625 78.273438 " fill-opacity="1" fill-rule="nonzero"/><path fill="#ffffff" d="M 169.640625 94.183594 C 159.449219 96.816406 149.972656 101.042969 141.472656 106.746094 C 140.449219 107.433594 140.175781 108.816406 140.863281 109.839844 C 141.292969 110.484375 142 110.828125 142.714844 110.828125 C 143.144531 110.828125 143.574219 110.707031 143.957031 110.449219 C 152.039062 105.03125 161.058594 101.007812 170.757812 98.5 C 171.949219 98.195312 172.667969 96.980469 172.359375 95.785156 C 172.046875 94.589844 170.832031 93.875 169.640625 94.183594 Z M 169.640625 94.183594 " fill-opacity="1" fill-rule="nonzero"/><path fill="#ffffff" d="M 101.21875 84.71875 C 101.65625 85.273438 102.3125 85.570312 102.972656 85.570312 C 103.457031 85.570312 103.941406 85.414062 104.351562 85.089844 C 111.191406 79.699219 118.816406 75.703125 127.019531 73.214844 C 128.195312 72.859375 128.863281 71.613281 128.503906 70.4375 C 128.148438 69.257812 126.902344 68.59375 125.722656 68.949219 C 116.988281 71.601562 108.871094 75.855469 101.589844 81.589844 C 100.625 82.351562 100.457031 83.753906 101.21875 84.71875 Z M 101.21875 84.71875 " fill-opacity="1" fill-rule="nonzero"/><path fill="#ffffff" d="M 90.34375 77.027344 C 90.839844 77.027344 91.332031 76.863281 91.746094 76.527344 C 98.808594 70.808594 106.683594 66.566406 115.148438 63.921875 C 116.320312 63.554688 116.980469 62.304688 116.613281 61.128906 C 116.242188 59.949219 114.992188 59.300781 113.820312 59.664062 C 104.8125 62.476562 96.4375 66.980469 88.9375 73.058594 C 87.980469 73.835938 87.832031 75.234375 88.605469 76.195312 C 89.050781 76.742188 89.695312 77.027344 90.34375 77.027344 Z M 90.34375 77.027344 " fill-opacity="1" fill-rule="nonzero"/><path fill="#ffffff" d="M 123.980469 112.617188 C 115.359375 115.304688 107.367188 119.835938 100.863281 125.71875 C 99.949219 126.542969 99.878906 127.957031 100.703125 128.867188 C 101.140625 129.351562 101.75 129.601562 102.355469 129.601562 C 102.886719 129.601562 103.425781 129.414062 103.847656 129.027344 C 109.878906 123.574219 117.296875 119.371094 125.304688 116.871094 C 126.476562 116.503906 127.132812 115.257812 126.765625 114.078125 C 126.40625 112.90625 125.15625 112.253906 123.980469 112.617188 Z M 123.980469 112.617188 " fill-opacity="1" fill-rule="nonzero"/><path fill="#ffffff" d="M 111.953125 106.894531 C 111.472656 105.761719 110.160156 105.238281 109.03125 105.722656 C 101.570312 108.90625 94.632812 113.144531 88.425781 118.316406 C 87.476562 119.105469 87.351562 120.507812 88.136719 121.457031 C 88.578125 121.988281 89.210938 122.257812 89.851562 122.257812 C 90.351562 122.257812 90.855469 122.085938 91.277344 121.742188 C 97.15625 116.847656 103.71875 112.835938 110.78125 109.824219 C 111.914062 109.335938 112.441406 108.027344 111.953125 106.894531 Z M 111.953125 106.894531 " fill-opacity="1" fill-rule="nonzero"/><path fill="#ffffff" d="M 84.863281 93.28125 C 84.398438 92.140625 83.097656 91.589844 81.957031 92.054688 C 73.808594 95.359375 66.050781 99.632812 58.894531 104.746094 C 57.890625 105.460938 57.660156 106.855469 58.378906 107.855469 C 58.8125 108.464844 59.496094 108.785156 60.195312 108.785156 C 60.644531 108.785156 61.097656 108.652344 61.492188 108.371094 C 68.359375 103.457031 75.808594 99.355469 83.636719 96.183594 C 84.773438 95.71875 85.324219 94.417969 84.863281 93.28125 Z M 84.863281 93.28125 " fill-opacity="1" fill-rule="nonzero"/><path fill="#ffffff" d="M 97.324219 100.101562 C 96.90625 98.945312 95.628906 98.34375 94.472656 98.757812 C 86.640625 101.570312 79.398438 105.65625 72.945312 110.90625 C 71.992188 111.683594 71.847656 113.085938 72.625 114.042969 C 73.066406 114.585938 73.703125 114.863281 74.355469 114.863281 C 74.847656 114.863281 75.347656 114.699219 75.757812 114.363281 C 81.820312 109.429688 88.625 105.589844 95.980469 102.949219 C 97.136719 102.539062 97.738281 101.261719 97.324219 100.101562 Z M 97.324219 100.101562 " fill-opacity="1" fill-rule="nonzero"/></svg>