<svg xmlns="http://www.w3.org/2000/svg" xmlns:xlink="http://www.w3.org/1999/xlink" width="256" zoomAndPan="magnify" viewBox="0 0 192 191.999996" height="256" preserveAspectRatio="xMidYMid meet" version="1.0"><defs><clipPath id="2c7fc23c20"><path d="M 7.433594 6.785156 L 184.433594 6.785156 L 184.433594 185.285156 L 7.433594 185.285156 Z M 7.433594 6.785156 " clip-rule="nonzero"/></clipPath></defs><path fill="#5ce1e6" d="M 35.675781 110.058594 L 49.761719 110.058594 C 51.714844 110.058594 53.296875 108.472656 53.296875 106.519531 L 53.296875 92.433594 C 53.296875 90.480469 51.714844 88.898438 49.761719 88.898438 L 35.675781 88.898438 C 33.722656 88.898438 32.136719 90.480469 32.136719 92.433594 L 32.136719 106.519531 C 32.136719 108.472656 33.722656 110.058594 35.675781 110.058594 Z M 35.675781 110.058594 " fill-opacity="1" fill-rule="nonzero"/><path fill="#5ce1e6" d="M 35.675781 139.179688 L 49.761719 139.179688 C 51.714844 139.179688 53.296875 137.59375 53.296875 135.640625 L 53.296875 121.554688 C 53.296875 119.601562 51.714844 118.019531 49.761719 118.019531 L 35.675781 118.019531 C 33.722656 118.019531 32.136719 119.601562 32.136719 121.554688 L 32.136719 135.640625 C 32.136719 137.59375 33.722656 139.179688 35.675781 139.179688 Z M 35.675781 139.179688 " fill-opacity="1" fill-rule="nonzero"/><path fill="#5ce1e6" d="M 35.675781 168.300781 L 49.761719 168.300781 C 51.714844 168.300781 53.296875 166.714844 53.296875 164.761719 L 53.296875 150.675781 C 53.296875 148.722656 51.714844 147.140625 49.761719 147.140625 L 35.675781 147.140625 C 33.722656 147.140625 32.136719 148.722656 32.136719 150.675781 L 32.136719 164.761719 C 32.136719 166.714844 33.722656 168.300781 35.675781 168.300781 Z M 35.675781 168.300781 " fill-opacity="1" fill-rule="nonzero"/><path fill="#5ce1e6" d="M 71.195312 110.058594 L 85.28125 110.058594 C 87.234375 110.058594 88.816406 108.472656 88.816406 106.519531 L 88.816406 92.433594 C 88.816406 90.480469 87.234375 88.898438 85.28125 88.898438 L 71.195312 88.898438 C 69.242188 88.898438 67.65625 90.480469 67.65625 92.433594 L 67.65625 106.519531 C 67.660156 108.472656 69.242188 110.058594 71.195312 110.058594 Z M 71.195312 110.058594 " fill-opacity="1" fill-rule="nonzero"/><path fill="#5ce1e6" d="M 71.195312 139.179688 L 85.28125 139.179688 C 87.234375 139.179688 88.816406 137.59375 88.816406 135.640625 L 88.816406 121.554688 C 88.816406 119.601562 87.234375 118.019531 85.28125 118.019531 L 71.195312 118.019531 C 69.242188 118.019531 67.65625 119.601562 67.65625 121.554688 L 67.65625 135.640625 C 67.660156 137.59375 69.242188 139.179688 71.195312 139.179688 Z M 71.195312 139.179688 " fill-opacity="1" fill-rule="nonzero"/><path fill="#5ce1e6" d="M 71.195312 168.300781 L 85.28125 168.300781 C 87.234375 168.300781 88.816406 166.714844 88.816406 164.761719 L 88.816406 150.675781 C 88.816406 148.722656 87.234375 147.140625 85.28125 147.140625 L 71.195312 147.140625 C 69.242188 147.140625 67.65625 148.722656 67.65625 150.675781 L 67.65625 164.761719 C 67.660156 166.714844 69.242188 168.300781 71.195312 168.300781 Z M 71.195312 168.300781 " fill-opacity="1" fill-rule="nonzero"/><path fill="#5ce1e6" d="M 106.714844 110.058594 L 120.800781 110.058594 C 122.753906 110.058594 124.339844 108.472656 124.339844 106.519531 L 124.339844 92.433594 C 124.339844 90.480469 122.753906 88.898438 120.800781 88.898438 L 106.714844 88.898438 C 104.761719 88.898438 103.179688 90.480469 103.179688 92.433594 L 103.179688 106.519531 C 103.179688 108.472656 104.761719 110.058594 106.714844 110.058594 Z M 106.714844 110.058594 " fill-opacity="1" fill-rule="nonzero"/><path fill="#5ce1e6" d="M 120.800781 147.140625 L 106.714844 147.140625 C 104.761719 147.140625 103.179688 148.722656 103.179688 150.675781 L 103.179688 164.761719 C 103.179688 166.714844 104.761719 168.300781 106.714844 168.300781 L 120.800781 168.300781 C 122.753906 168.300781 124.339844 166.714844 124.339844 164.761719 L 124.339844 150.675781 C 124.339844 148.722656 122.753906 147.140625 120.800781 147.140625 Z M 120.800781 147.140625 " fill-opacity="1" fill-rule="nonzero"/><path fill="#5ce1e6" d="M 142.238281 110.058594 L 156.324219 110.058594 C 158.277344 110.058594 159.859375 108.472656 159.859375 106.519531 L 159.859375 92.433594 C 159.859375 90.480469 158.277344 88.898438 156.324219 88.898438 L 142.238281 88.898438 C 140.285156 88.898438 138.699219 90.480469 138.699219 92.433594 L 138.699219 106.519531 C 138.699219 108.472656 140.285156 110.058594 142.238281 110.058594 Z M 142.238281 110.058594 " fill-opacity="1" fill-rule="nonzero"/><path fill="#5ce1e6" d="M 142.238281 139.179688 L 156.324219 139.179688 C 158.277344 139.179688 159.859375 137.59375 159.859375 135.640625 L 159.859375 121.554688 C 159.859375 119.601562 158.277344 118.019531 156.324219 118.019531 L 142.238281 118.019531 C 140.285156 118.019531 138.699219 119.601562 138.699219 121.554688 L 138.699219 135.640625 C 138.699219 137.59375 140.285156 139.179688 142.238281 139.179688 Z M 142.238281 139.179688 " fill-opacity="1" fill-rule="nonzero"/><g clip-path="url(#2c7fc23c20)"><path fill="#5ce1e6" d="M 143.015625 6.859375 C 139.699219 6.859375 137.007812 9.550781 137.007812 12.867188 L 137.007812 24.9375 L 55.296875 24.9375 L 55.296875 12.867188 C 55.296875 9.550781 52.609375 6.859375 49.292969 6.859375 C 45.972656 6.859375 43.285156 9.550781 43.285156 12.867188 L 43.285156 24.9375 L 24.351562 24.9375 C 15.023438 24.9375 7.433594 32.527344 7.433594 41.855469 L 7.433594 168.210938 C 7.433594 177.539062 15.023438 185.128906 24.351562 185.128906 L 167.648438 185.128906 C 176.972656 185.128906 184.5625 177.539062 184.5625 168.210938 L 184.5625 41.855469 C 184.5625 32.527344 176.972656 24.9375 167.648438 24.9375 L 149.023438 24.9375 L 149.023438 12.867188 C 149.023438 9.550781 146.332031 6.859375 143.015625 6.859375 Z M 43.285156 33.554688 L 43.285156 41.015625 C 43.285156 44.332031 45.972656 47.023438 49.292969 47.023438 C 52.609375 47.023438 55.296875 44.332031 55.296875 41.015625 L 55.296875 33.554688 C 57.476562 35.3125 58.867188 38 58.867188 41.015625 C 58.867188 46.304688 54.582031 50.59375 49.289062 50.59375 C 44 50.59375 39.714844 46.304688 39.714844 41.015625 C 39.714844 38 41.105469 35.3125 43.285156 33.554688 Z M 176.230469 168.210938 C 176.230469 172.945312 172.378906 176.792969 167.648438 176.792969 L 24.351562 176.792969 C 19.617188 176.792969 15.769531 172.945312 15.769531 168.210938 L 15.769531 80.402344 L 176.230469 80.402344 Z M 152.59375 41.015625 C 152.59375 46.304688 148.304688 50.59375 143.015625 50.59375 C 137.726562 50.59375 133.4375 46.304688 133.4375 41.015625 C 133.4375 38 134.832031 35.3125 137.007812 33.554688 L 137.007812 41.015625 C 137.007812 44.332031 139.695312 47.019531 143.015625 47.019531 C 146.332031 47.019531 149.023438 44.332031 149.023438 41.015625 L 149.023438 33.554688 C 151.199219 35.3125 152.59375 38 152.59375 41.015625 Z M 152.59375 41.015625 " fill-opacity="1" fill-rule="nonzero"/></g><path fill="#5ce1e6" d="M 112.644531 141.046875 L 129.429688 124.261719 C 131.058594 122.632812 131.058594 119.996094 129.429688 118.367188 C 127.800781 116.738281 125.164062 116.738281 123.535156 118.367188 L 112.644531 129.257812 L 108.269531 124.882812 C 106.644531 123.257812 104.003906 123.257812 102.378906 124.882812 C 100.75 126.511719 100.75 129.152344 102.378906 130.777344 Z M 112.644531 141.046875 " fill-opacity="1" fill-rule="nonzero"/></svg>